<svg xmlns="http://www.w3.org/2000/svg" width="27" height="40" viewBox="0 0 27 40"><g><g><path fill="#c5c5c5" d="M13.36 18.316c-1.733 0-3.629-.878-4.565-3.3-.14-.386-.128-1.159-.128-1.23v-1.088c0-3.089 2.59-4.493 4.842-4.493 2.774 0 4.919 2.247 4.919 5.056 0 2.808-2.295 5.055-5.068 5.055zm12.872-8.461c-.139-.527-.42-1.088-.63-1.58-2.495-6.073-7.947-8.25-12.35-8.25C7.358.025.867 4.027 0 12.277v1.685c0 .07.024.702.058 1.018.486 3.932 3.55 8.11 5.837 12.042 2.462 4.212 5.016 8.355 7.546 12.497 1.56-2.703 3.115-5.441 4.64-8.074.415-.773.898-1.545 1.314-2.283.277-.49.807-.982 1.049-1.439 2.461-4.563 6.423-9.162 6.423-13.69v-1.861c0-.491-.601-2.211-.635-2.317z"/></g></g></svg>