<svg xmlns="http://www.w3.org/2000/svg" width="40" height="40" viewBox="0 0 40 40"><g><g><g><path fill="#c5c5c5" d="M26.396 15.138a1.468 1.468 0 0 1-1.466-1.466c0-.808.657-1.466 1.466-1.466.809 0 1.466.658 1.466 1.466 0 .809-.657 1.466-1.466 1.466zM20 26.251a6.204 6.204 0 0 1-6.197-6.197A6.204 6.204 0 0 1 20 13.857a6.204 6.204 0 0 1 6.197 6.197A6.205 6.205 0 0 1 20 26.25zm5.96-15.61H14.04a3.455 3.455 0 0 0-3.452 3.452v11.922a3.455 3.455 0 0 0 3.451 3.451h11.922a3.455 3.455 0 0 0 3.451-3.451V14.093a3.455 3.455 0 0 0-3.451-3.451z"/></g><g><path fill="#c5c5c5" d="M20 16.476a3.583 3.583 0 0 0-3.579 3.577A3.583 3.583 0 0 0 20 23.633a3.582 3.582 0 0 0 3.578-3.58A3.582 3.582 0 0 0 20 16.476z"/></g><g><path fill="#c5c5c5" d="M32.03 26.015a6.076 6.076 0 0 1-6.07 6.07H14.04a6.076 6.076 0 0 1-6.07-6.07V14.093a6.077 6.077 0 0 1 6.07-6.07h11.92a6.076 6.076 0 0 1 6.07 6.07zM20 0C8.955 0 0 8.955 0 20s8.955 20 20 20 20-8.955 20-20S31.045 0 20 0z"/></g></g></g></svg>