<svg xmlns="http://www.w3.org/2000/svg" width="40" height="40" viewBox="0 0 40 40"><g><g><g><path fill="#c5c5c5" d="M0 20C0 8.954 8.954 0 20 0s20 8.954 20 20-8.954 20-20 20S0 31.046 0 20z"/></g><g><g><path fill="#f1f2f2" d="M32.25 14.373a9.538 9.538 0 0 1-2.745.752 4.794 4.794 0 0 0 2.102-2.644 9.57 9.57 0 0 1-3.036 1.16A4.781 4.781 0 0 0 20.425 18a13.57 13.57 0 0 1-9.854-4.995 4.78 4.78 0 0 0 1.48 6.383 4.747 4.747 0 0 1-2.166-.599v.06a4.783 4.783 0 0 0 3.835 4.688 4.764 4.764 0 0 1-2.159.083 4.786 4.786 0 0 0 4.466 3.32 9.592 9.592 0 0 1-5.938 2.046c-.385 0-.766-.022-1.14-.067a13.522 13.522 0 0 0 7.328 2.148c8.793 0 13.602-7.284 13.602-13.602 0-.207-.005-.414-.014-.618a9.694 9.694 0 0 0 2.386-2.475z"/></g></g></g></g></svg>