<svg xmlns="http://www.w3.org/2000/svg" width="18.824" height="18.824" viewBox="0 0 18.824 18.824"><defs><style>.a{fill:#c5c5c5;}</style></defs><path class="a" d="M39.132,23.88H27.21a3.455,3.455,0,0,0-3.451,3.451V39.253A3.455,3.455,0,0,0,27.21,42.7H39.132a3.455,3.455,0,0,0,3.451-3.452V27.331A3.455,3.455,0,0,0,39.132,23.88ZM33.171,39.489a6.2,6.2,0,1,1,6.2-6.2A6.2,6.2,0,0,1,33.171,39.489Zm6.4-11.113a1.466,1.466,0,1,1,1.466-1.466A1.468,1.468,0,0,1,39.567,28.377Z" transform="translate(-23.759 -23.88)"/></svg>